<svg width="24" height="24" viewBox="0 0 24 24" fill="none" xmlns="http://www.w3.org/2000/svg">
<path d="M15.1392 11.8125C14.7387 11.5554 14.3042 11.3558 13.8482 11.2197C13.5684 11.1351 13.2586 11.0524 12.9378 10.9726C12.6586 10.8948 12.3264 10.8149 11.9155 10.7246C11.4263 10.6221 10.9461 10.4803 10.4795 10.3008C10.2392 10.2072 10.0271 10.0532 9.86383 9.8535C9.74468 9.69021 9.68819 9.48953 9.70465 9.28807C9.7041 9.07196 9.77596 8.86189 9.90875 8.69139C10.095 8.47288 10.3367 8.3086 10.6085 8.2158C11.0662 8.05859 11.5485 7.98547 12.0322 7.99999C12.4059 7.994 12.7785 8.04336 13.1377 8.14647C13.3762 8.21325 13.6009 8.32205 13.8013 8.46776C13.9307 8.56002 14.0411 8.67641 14.1265 8.81054C14.1884 8.92658 14.2727 9.02925 14.3744 9.11267C14.4761 9.19608 14.5933 9.2586 14.7192 9.29665C14.8451 9.33469 14.9773 9.34751 15.1082 9.33436C15.2391 9.32122 15.3661 9.28237 15.482 9.22004C15.5978 9.15772 15.7002 9.07315 15.7833 8.97117C15.8664 8.86919 15.9286 8.75182 15.9662 8.62577C16.0039 8.49973 16.0163 8.36749 16.0027 8.23665C15.9891 8.1058 15.9499 7.97892 15.8872 7.86327C15.6762 7.49024 15.3913 7.16424 15.0498 6.90527C14.6555 6.60238 14.2083 6.37553 13.731 6.23632C13.1797 6.07332 12.6071 5.99366 12.0322 5.99999C11.3018 5.98446 10.5747 6.1033 9.88723 6.35058C9.2652 6.57636 8.71861 6.97141 8.30908 7.4912C7.91716 8.00828 7.7049 8.63925 7.70459 9.28808C7.68839 9.93402 7.89302 10.5662 8.28467 11.0801C8.66274 11.5563 9.15835 11.9259 9.72267 12.1523C10.1491 12.3164 10.5857 12.4526 11.0297 12.5602C11.0381 12.563 11.0437 12.5697 11.0523 12.5722C11.2437 12.6298 11.5498 12.707 11.9922 12.8027C12.1646 12.8397 12.327 12.8806 12.4893 12.9212C12.5051 12.9259 12.5278 12.9308 12.543 12.9355L12.561 12.9383C12.8094 13.0016 13.0481 13.067 13.2666 13.1338C13.5359 13.2124 13.7929 13.3281 14.0303 13.4775C14.1779 13.5705 14.302 13.6965 14.3926 13.8457C14.4807 14.0276 14.5215 14.2288 14.5112 14.4307C14.5252 14.692 14.4498 14.9503 14.2974 15.1631C14.0914 15.431 13.8127 15.634 13.4946 15.7481C13.0211 15.9308 12.5156 16.0165 12.0083 16C11.4212 16.0227 10.8371 15.9049 10.3047 15.6562C10.059 15.5253 9.84796 15.3379 9.68896 15.1094C9.57747 14.9631 9.50777 14.7892 9.4873 14.6064C9.4873 14.3412 9.38194 14.0869 9.19441 13.8993C9.00687 13.7118 8.75252 13.6064 8.4873 13.6064C8.22208 13.6064 7.96773 13.7118 7.78019 13.8993C7.59266 14.0869 7.4873 14.3412 7.4873 14.6064C7.50407 15.1961 7.69785 15.7671 8.04346 16.2451C8.3889 16.7429 8.84914 17.1502 9.38525 17.4326C10.201 17.8307 11.101 18.0254 12.0083 18C12.7793 18.0185 13.546 17.8807 14.2622 17.5947C14.928 17.3394 15.506 16.8976 15.9272 16.3223C16.3275 15.7612 16.5325 15.0843 16.5107 14.3955C16.5201 13.8616 16.3909 13.3343 16.1357 12.8652C15.8894 12.4419 15.5483 12.0816 15.1392 11.8125ZM22.3613 13.6914C22.6313 12.0477 22.5059 10.3633 21.9957 8.77768C21.4855 7.19203 20.605 5.75065 19.4272 4.57281C18.2493 3.39496 16.808 2.51451 15.2223 2.00428C13.6367 1.49405 11.9523 1.36872 10.3086 1.63866C9.09521 1.05692 7.73118 0.866165 6.40477 1.09272C5.07835 1.31927 3.85497 1.95196 2.90347 2.90346C1.95197 3.85496 1.31928 5.07834 1.09273 6.40476C0.866176 7.73117 1.05693 9.0952 1.63867 10.3086C1.36873 11.9523 1.49406 13.6366 2.00429 15.2223C2.51452 16.808 3.39497 18.2493 4.57282 19.4272C5.75066 20.605 7.19204 21.4855 8.77769 21.9957C10.3633 22.5059 12.0477 22.6313 13.6914 22.3613C14.9048 22.9431 16.2688 23.1338 17.5952 22.9073C18.9216 22.6807 20.145 22.048 21.0965 21.0965C22.048 20.145 22.6807 18.9216 22.9073 17.5952C23.1338 16.2688 22.9431 14.9048 22.3613 13.6914ZM16.5 21C15.7414 20.9997 14.9952 20.8079 14.3306 20.4424C14.1243 20.3285 13.8846 20.2908 13.6533 20.3359C12.4209 20.5818 11.1492 20.551 9.93011 20.2458C8.71099 19.9407 7.57479 19.3688 6.60349 18.5713C5.63218 17.7739 4.84997 16.7708 4.31329 15.6344C3.77661 14.498 3.49883 13.2567 3.5 12C3.50103 11.4445 3.55597 10.8905 3.66406 10.3457C3.70921 10.1147 3.67171 9.87514 3.55811 9.66899C3.08809 8.81506 2.90808 7.83159 3.04517 6.86655C3.18226 5.9015 3.62903 5.00707 4.31827 4.31782C5.00751 3.62858 5.90194 3.18179 6.86698 3.04469C7.83203 2.90759 8.8155 3.08759 9.66943 3.55761C9.87558 3.67181 10.1154 3.70951 10.3467 3.66405C11.5791 3.41821 12.8508 3.44898 14.0699 3.75413C15.289 4.05928 16.4252 4.63121 17.3965 5.42866C18.3678 6.22611 19.15 7.2292 19.6867 8.36557C20.2234 9.50194 20.5012 10.7433 20.5 12C20.499 12.5554 20.444 13.1095 20.3359 13.6543C20.2908 13.8853 20.3283 14.1249 20.4419 14.331C20.8192 15.0161 21.0114 15.7877 20.9995 16.5697C20.9876 17.3517 20.7721 18.1171 20.3741 18.7904C19.9761 19.4637 19.4095 20.0216 18.7301 20.4091C18.0508 20.7966 17.2821 21.0002 16.5 21Z" fill="black"/>
</svg>
