<svg width="18" height="18" viewBox="0 0 18 18" fill="none" xmlns="http://www.w3.org/2000/svg">
<path d="M11.0951 13.8794C12.5552 13.8794 13.7373 12.6969 13.7373 11.2372C13.7373 9.77764 12.5552 8.59517 11.0951 8.59517C9.63501 8.59517 8.45288 9.77764 8.45288 11.2372C8.45288 12.6969 9.63501 13.8794 11.0951 13.8794Z" fill="#323232"/>
<path fill-rule="evenodd" clip-rule="evenodd" d="M15.951 4.43375H14.7931V2.84431C14.7931 1.90395 14.0208 1.13202 13.0803 1.13202H8.49133C7.5509 1.13202 6.77856 1.90395 6.77856 2.84431V4.43375H2.01379C0.901978 4.43375 0 5.33553 0 6.44432V15.0338C0 16.1426 0.901978 17.0478 2.01379 17.0478H15.9543C17.0629 17.0478 17.9681 16.1461 17.9681 15.0338V6.44432C17.9648 5.33553 17.0629 4.43375 15.951 4.43375ZM2.11597 7.53904C2.11597 8.12152 2.58948 8.59517 3.17175 8.59517C3.75403 8.59517 4.22864 8.12152 4.22864 7.53904C4.22864 6.95663 3.75403 6.48291 3.17175 6.48291C2.58948 6.48291 2.11597 6.95663 2.11597 7.53904ZM11.0951 15.9917C8.47046 15.9917 6.34021 13.8619 6.34021 11.2373C6.34021 8.61275 8.47046 6.48291 11.0951 6.48291C13.7186 6.48291 15.8489 8.61275 15.8489 11.2373C15.8489 13.8619 13.723 15.9917 11.0951 15.9917Z" fill="#323232"/>
<path d="M6.34021 2.90741C6.34021 2.36008 5.89087 1.91095 5.34375 1.91095H2.66309C2.11597 1.91095 1.66663 2.36008 1.66663 2.90741V3.70042H6.34021V2.90741Z" fill="#323232"/>
</svg>
