<svg width="25" height="25" viewBox="0 0 25 25" fill="none" xmlns="http://www.w3.org/2000/svg">
<path fill-rule="evenodd" clip-rule="evenodd" d="M17.5703 0L20.9254 3.38203L20.384 3.9277C20.2752 4.03742 20.2502 4.24564 20.3689 4.40802C20.4173 4.4742 20.488 4.52621 20.5942 4.54703C20.7036 4.56847 20.9073 4.56663 21.2205 4.41707L21.717 4.18002L24.9469 7.4359L24.5119 7.97565C24.3841 8.13422 24.2205 8.43201 24.1754 8.74871C24.1352 9.03118 24.1856 9.31546 24.4587 9.59073L25 10.1364L10.4714 24.7817L9.96331 24.5121C9.74339 24.3955 9.36288 24.2506 8.98709 24.2101C8.60224 24.1687 8.37506 24.2479 8.2506 24.3734L7.70054 24.9278L4.37349 21.5741L4.68051 21.0582C4.7423 20.9544 4.77523 20.8298 4.77523 20.7101C4.77523 20.5886 4.74208 20.5049 4.71163 20.4614C4.68924 20.4294 4.66192 20.4059 4.59894 20.3946C4.5222 20.3809 4.3431 20.3798 4.03322 20.5187L3.54395 20.7379L0 17.1654L0.720515 16.6328C0.833754 16.5491 0.96366 16.3851 0.997304 16.2091C1.02031 16.0887 1.02757 15.8281 0.631033 15.4284L0.0897082 14.8827L14.7546 0.0999846L15.286 0.457065C15.4799 0.587347 15.8289 0.751439 16.1875 0.797034C16.5278 0.84029 16.8029 0.773495 17.0202 0.554473L17.5703 0ZM14.9979 2.05509L2.21164 14.944C2.52432 15.4607 2.61624 15.9931 2.51936 16.5C2.46724 16.7727 2.3648 17.0143 2.23844 17.2216L3.9224 18.9191C4.24768 18.8353 4.5666 18.8148 4.87125 18.8691C5.35156 18.9549 5.73171 19.2166 5.98096 19.5725C6.32774 20.0677 6.39962 20.6993 6.25316 21.2685L7.80914 22.837C8.26634 22.6438 8.75269 22.6263 9.15307 22.6694C9.5113 22.708 9.85501 22.7993 10.1494 22.906L22.8951 10.0579C22.625 9.54709 22.5729 9.01047 22.6413 8.53026C22.69 8.18788 22.7989 7.87251 22.9297 7.60279L21.3553 6.0157C20.9911 6.11499 20.6342 6.13397 20.2961 6.0677C19.7912 5.96872 19.3865 5.68986 19.1179 5.32248C18.7463 4.81413 18.6298 4.11591 18.8587 3.4991L17.4803 2.10956C16.9816 2.35541 16.4518 2.39271 15.9921 2.33427C15.6289 2.28809 15.2885 2.18138 14.9979 2.05509ZM11.9213 7.06981C13.5412 5.44989 16.1677 5.44989 17.7876 7.06982L18.0905 7.3727C19.6267 8.90898 19.6267 11.3998 18.0905 12.9361L13.2442 17.7823C11.5825 19.444 8.88827 19.444 7.22653 17.7823L7.15081 17.7066C5.72219 16.278 5.55348 14.0665 6.64467 12.453L6.59015 12.401L11.9213 7.06981ZM7.79165 13.5483C7.26571 14.5315 7.41734 15.7816 8.24655 16.6108L8.32227 16.6866C9.19698 17.5613 10.5216 17.7118 11.5512 17.1383L7.79165 13.5483ZM12.7217 16.1133L8.8072 12.3754L12.4858 8.69682L16.4297 12.4053L12.7217 16.1133ZM17.4388 11.2271C17.8892 10.3332 17.7412 9.2149 16.9947 8.46844L16.6918 8.16555C15.8752 7.34892 14.6503 7.18948 13.6742 7.68721L17.4388 11.2271ZM13.0088 11.8255L12.5449 10.3978L12.081 11.8255H10.5799L11.7943 12.7078L11.3304 14.1355L12.5449 13.2531L13.7593 14.1355L13.2955 12.7078L14.5099 11.8255H13.0088Z" fill="black"/>
</svg>
