<svg width="38" height="38" viewBox="0 0 38 38" fill="none" xmlns="http://www.w3.org/2000/svg">
<path d="M29.2442 36.0207H22.9108C19.0792 36.0207 16.9733 33.9148 16.9733 30.0832V7.9165C16.9733 4.08484 19.0792 1.979 22.9108 1.979H29.2442C33.0758 1.979 35.1817 4.08484 35.1817 7.9165V30.0832C35.1817 33.9148 33.06 36.0207 29.2442 36.0207ZM22.9108 4.354C20.4092 4.354 19.3483 5.41484 19.3483 7.9165V30.0832C19.3483 32.5848 20.4092 33.6457 22.9108 33.6457H29.2442C31.7458 33.6457 32.8067 32.5848 32.8067 30.0832V7.9165C32.8067 5.41484 31.7458 4.354 29.2442 4.354H22.9108Z" fill="#292D32"/>
<path d="M26.0775 10.6875H18.1608C17.5117 10.6875 16.9733 10.1492 16.9733 9.5C16.9733 8.85083 17.5117 8.3125 18.1608 8.3125H26.0775C26.7267 8.3125 27.265 8.85083 27.265 9.5C27.265 10.1492 26.7267 10.6875 26.0775 10.6875Z" fill="#292D32"/>
<path d="M24.4942 29.6875H18.1608C17.5117 29.6875 16.9733 29.1492 16.9733 28.5C16.9733 27.8508 17.5117 27.3125 18.1608 27.3125H24.4942C25.1433 27.3125 25.6817 27.8508 25.6817 28.5C25.6817 29.1492 25.1433 29.6875 24.4942 29.6875Z" fill="#292D32"/>
<path d="M26.0775 23.3541C26.0617 23.3541 26.0617 23.3541 26.0775 23.3541L18.145 23.2749C17.4958 23.2749 16.9575 22.7366 16.9733 22.0716C16.9733 21.4224 17.5117 20.8999 18.1608 20.8999C18.1608 20.8999 18.1608 20.8999 18.1767 20.8999L26.0933 20.9791C26.7425 20.9791 27.2808 21.5174 27.265 22.1824C27.2492 22.8316 26.7267 23.3541 26.0775 23.3541Z" fill="#292D32"/>
<path d="M22.9108 17.021H18.1608C17.5117 17.021 16.9733 16.4827 16.9733 15.8335C16.9733 15.1843 17.5117 14.646 18.1608 14.646H22.9108C23.56 14.646 24.0983 15.1843 24.0983 15.8335C24.0983 16.4827 23.56 17.021 22.9108 17.021Z" fill="#292D32"/>
<path d="M8.6925 35.9732C7.25167 35.9732 5.89 35.0865 4.95583 33.5348L3.6575 31.3815C3.1825 30.5898 2.81833 29.2915 2.81833 28.3732V7.83734C2.81833 4.60734 5.44667 1.979 8.67667 1.979C11.9067 1.979 14.535 4.60734 14.535 7.83734V28.3573C14.535 29.2757 14.1708 30.574 13.6958 31.3657L12.3975 33.519C11.495 35.0865 10.1333 35.9732 8.6925 35.9732ZM8.6925 4.354C6.77667 4.354 5.20917 5.9215 5.20917 7.83734V28.3573C5.20917 28.8482 5.44667 29.719 5.7 30.1465L6.99833 32.2998C7.48917 33.1232 8.10667 33.5823 8.6925 33.5823C9.27833 33.5823 9.89583 33.1073 10.3867 32.2998L11.685 30.1465C11.9383 29.719 12.1758 28.8482 12.1758 28.3573V7.83734C12.1758 5.9215 10.6083 4.354 8.6925 4.354Z" fill="#292D32"/>
<path d="M13.3633 12.271H4.00583C3.35667 12.271 2.81833 11.7327 2.81833 11.0835C2.81833 10.4343 3.35667 9.896 4.00583 9.896H13.3633C14.0125 9.896 14.5508 10.4343 14.5508 11.0835C14.5508 11.7327 14.0125 12.271 13.3633 12.271Z" fill="#292D32"/>
</svg>
