<svg width="24" height="24" viewBox="0 0 24 24" fill="none" xmlns="http://www.w3.org/2000/svg">
<path d="M14.9754 3.01885L15.9352 1.28726C15.9475 1.26505 15.9553 1.24062 15.9582 1.21539C15.9611 1.19015 15.9589 1.16459 15.9519 1.14018C15.9449 1.11576 15.9332 1.09296 15.9174 1.07308C15.9016 1.0532 15.882 1.03663 15.8598 1.02432C15.8149 0.999445 15.762 0.993414 15.7127 1.00755C15.6634 1.02169 15.6217 1.05484 15.5968 1.0997L14.6264 2.85048C13.7984 2.48749 12.9041 2.30008 12 2.30008C11.0959 2.30008 10.2017 2.48749 9.37364 2.85048L8.40316 1.0997C8.37829 1.05484 8.33661 1.02169 8.2873 1.00755C8.23799 0.993414 8.18508 0.999445 8.14022 1.02432C8.09535 1.04919 8.0622 1.09086 8.04807 1.14018C8.03393 1.18949 8.03996 1.2424 8.06483 1.28726L9.02468 3.01886C8.11101 3.46923 7.33902 4.16253 6.79339 5.02271C6.24776 5.8829 5.94957 6.87673 5.93152 7.89521H18.0685C18.0505 6.87673 17.7523 5.88289 17.2066 5.02271C16.661 4.16252 15.889 3.46922 14.9754 3.01885ZM9.19911 5.67445C9.09888 5.67445 9.00089 5.64473 8.91755 5.58904C8.83421 5.53335 8.76925 5.4542 8.73089 5.3616C8.69253 5.26899 8.6825 5.16709 8.70205 5.06878C8.72161 4.97047 8.76987 4.88017 8.84075 4.80929C8.91163 4.73841 9.00193 4.69015 9.10024 4.67059C9.19855 4.65103 9.30045 4.66107 9.39306 4.69943C9.48566 4.73779 9.56481 4.80275 9.6205 4.88609C9.67619 4.96943 9.70591 5.06742 9.70591 5.16765C9.70576 5.30202 9.65232 5.43084 9.55731 5.52585C9.4623 5.62086 9.33348 5.6743 9.19911 5.67445ZM14.8009 5.67445C14.7007 5.67445 14.6027 5.64473 14.5193 5.58904C14.436 5.53335 14.371 5.4542 14.3327 5.3616C14.2943 5.26899 14.2843 5.16709 14.3038 5.06878C14.3234 4.97047 14.3717 4.88017 14.4425 4.80929C14.5134 4.73841 14.6037 4.69015 14.702 4.67059C14.8003 4.65103 14.9022 4.66107 14.9948 4.69943C15.0874 4.73779 15.1666 4.80275 15.2223 4.88609C15.278 4.96943 15.3077 5.06742 15.3077 5.16765C15.3075 5.30202 15.2541 5.43084 15.1591 5.52585C15.0641 5.62086 14.9353 5.6743 14.8009 5.67445ZM5.93143 17.1715C5.93143 17.5606 6.086 17.9337 6.36114 18.2089C6.63629 18.484 7.00945 18.6386 7.39856 18.6386H8.37216V21.6395C8.37168 21.8185 8.40651 21.9958 8.47466 22.1613C8.54281 22.3268 8.64295 22.4772 8.76932 22.6039C8.8957 22.7306 9.04584 22.8312 9.21114 22.8998C9.37644 22.9684 9.55365 23.0037 9.73262 23.0037C9.91159 23.0037 10.0888 22.9684 10.2541 22.8998C10.4194 22.8312 10.5695 22.7306 10.6959 22.6039C10.8223 22.4772 10.9224 22.3268 10.9906 22.1613C11.0587 21.9958 11.0936 21.8185 11.0931 21.6395V18.6386H12.9069V21.6395C12.9064 21.8185 12.9413 21.9958 13.0094 22.1613C13.0776 22.3268 13.1777 22.4772 13.3041 22.6039C13.4305 22.7306 13.5806 22.8312 13.7459 22.8998C13.9112 22.9684 14.0884 23.0037 14.2674 23.0037C14.4464 23.0037 14.6236 22.9684 14.7889 22.8998C14.9542 22.8312 15.1043 22.7306 15.2307 22.6039C15.3571 22.4772 15.4572 22.3268 15.5253 22.1613C15.5935 21.9958 15.6283 21.8185 15.6278 21.6395V18.6386H16.6015C16.9906 18.6386 17.3638 18.484 17.6389 18.2089C17.914 17.9337 18.0686 17.5606 18.0686 17.1715V8.37531H5.93143V17.1715ZM4.06415 8.1419C3.70346 8.14231 3.35766 8.28578 3.10262 8.54083C2.84757 8.79587 2.70411 9.14167 2.7037 9.50236V15.1708C2.70322 15.3498 2.73805 15.5271 2.8062 15.6926C2.87435 15.8581 2.97449 16.0085 3.10086 16.1352C3.22724 16.2619 3.37738 16.3625 3.54268 16.4311C3.70798 16.4997 3.88519 16.535 4.06416 16.535C4.24313 16.535 4.42034 16.4997 4.58563 16.4311C4.75093 16.3625 4.90107 16.2619 5.02745 16.1352C5.15383 16.0085 5.25396 15.8581 5.32211 15.6926C5.39027 15.5271 5.4251 15.3498 5.42461 15.1708V9.50236C5.4242 9.14167 5.28074 8.79587 5.02569 8.54082C4.77064 8.28577 4.42484 8.14231 4.06415 8.1419ZM19.9359 8.1419C19.5752 8.14231 19.2294 8.28577 18.9743 8.54082C18.7193 8.79587 18.5758 9.14167 18.5754 9.50236V15.1708C18.5749 15.3498 18.6097 15.5271 18.6779 15.6926C18.746 15.8581 18.8462 16.0085 18.9726 16.1352C19.0989 16.2619 19.2491 16.3625 19.4144 16.4311C19.5797 16.4997 19.7569 16.535 19.9358 16.535C20.1148 16.535 20.292 16.4997 20.4573 16.4311C20.6226 16.3625 20.7728 16.2619 20.8991 16.1352C21.0255 16.0085 21.1257 15.8581 21.1938 15.6926C21.262 15.5271 21.2968 15.3498 21.2963 15.1708V9.50236C21.2959 9.14167 21.1524 8.79587 20.8974 8.54083C20.6423 8.28578 20.2965 8.14231 19.9359 8.1419Z" fill="black"/>
</svg>
