<svg width="10" height="17" viewBox="0 0 10 17" fill="none" xmlns="http://www.w3.org/2000/svg">
<path d="M3.86739 8.39786L9.53448 2.73077C9.83265 2.43082 10 2.02508 10 1.60215C10 1.17922 9.83265 0.773479 9.53448 0.473536C9.38566 0.323488 9.2086 0.204392 9.01352 0.123118C8.81844 0.0418436 8.60919 0 8.39786 0C8.18653 0 7.97728 0.0418436 7.7822 0.123118C7.58712 0.204392 7.41006 0.323488 7.26124 0.473536L0.473536 7.26124C0.323488 7.41006 0.204393 7.58712 0.123119 7.7822C0.0418444 7.97728 0 8.18653 0 8.39786C0 8.60919 0.0418444 8.81844 0.123119 9.01352C0.204393 9.2086 0.323488 9.38566 0.473536 9.53448L7.26124 16.4022C7.41083 16.5506 7.58823 16.668 7.78327 16.7477C7.97832 16.8273 8.18717 16.8677 8.39786 16.8665C8.60855 16.8677 8.8174 16.8273 9.01245 16.7477C9.20749 16.668 9.3849 16.5506 9.53448 16.4022C9.83265 16.1023 10 15.6965 10 15.2736C10 14.8507 9.83265 14.4449 9.53448 14.145L3.86739 8.39786Z" fill="black"/>
</svg>
