<svg width="16" height="12" viewBox="0 0 16 12" fill="none" xmlns="http://www.w3.org/2000/svg">
<path d="M16 0H0V12H16V0Z" fill="#C0CFD8"/>
<path d="M15.5 0.5H0.5V1.5H15.5V0.5Z" fill="#E03232"/>
<path d="M15.5 1.5H0.5V2.5H15.5V1.5Z" fill="white"/>
<path d="M15.5 2.5H0.5V3.5H15.5V2.5Z" fill="#E03232"/>
<path d="M15.5 3.5H0.5V4.5H15.5V3.5Z" fill="white"/>
<path d="M15.5 4.5H0.5V5.5H15.5V4.5Z" fill="#E03232"/>
<path d="M15.5 5.5H0.5V6.5H15.5V5.5Z" fill="white"/>
<path d="M15.5 6.5H0.5V7.5H15.5V6.5Z" fill="#E03232"/>
<path d="M15.5 7.5H0.5V8.5H15.5V7.5Z" fill="white"/>
<path d="M15.5 8.5H0.5V9.5H15.5V8.5Z" fill="#E03232"/>
<path d="M15.5 9.5H0.5V10.5H15.5V9.5Z" fill="white"/>
<path d="M15.5 10.5H0.5V11.5H15.5V10.5Z" fill="#E03232"/>
<path d="M8.5 0.5H0.5V6.5H8.5V0.5Z" fill="#66A1CC"/>
<path d="M8.5 0.5H0.5V6.5H8.5V0.5Z" fill="#0035A0"/>
</svg>
