<svg width="24" height="24" viewBox="0 0 24 24" fill="none" xmlns="http://www.w3.org/2000/svg">
<g clip-path="url(#clip0_22_1912)">
<path d="M13.49 5.48001C14.59 5.48001 15.49 4.58001 15.49 3.48001C15.49 2.38001 14.59 1.48001 13.49 1.48001C12.39 1.48001 11.49 2.38001 11.49 3.48001C11.49 4.58001 12.39 5.48001 13.49 5.48001ZM9.89001 19.38L10.89 14.98L12.99 16.98V22.98H14.99V15.48L12.89 13.48L13.49 10.48C14.79 11.98 16.79 12.98 18.99 12.98V10.98C17.09 10.98 15.49 9.98001 14.69 8.58001L13.69 6.98001C13.29 6.38001 12.69 5.98001 11.99 5.98001C11.69 5.98001 11.49 6.08001 11.19 6.08001L5.99001 8.28001V12.98H7.99001V9.58001L9.79001 8.88001L8.19001 16.98L3.29001 15.98L2.89001 17.98L9.89001 19.38Z" fill="#323232"/>
</g>
<defs>
<clipPath id="clip0_22_1912">
<rect width="24" height="24" fill="white"/>
</clipPath>
</defs>
</svg>
