<svg width="38" height="38" viewBox="0 0 38 38" fill="none" xmlns="http://www.w3.org/2000/svg">
<path d="M25.6029 17.1157H12.3979C11.0362 17.1157 9.99123 16.5774 9.51623 15.6591C9.04123 14.7249 9.23119 13.5691 10.0229 12.4766L16.6254 3.22992C17.797 1.55159 20.2195 1.55159 21.407 3.24576L28.0095 12.4766C28.8012 13.5691 28.9912 14.7249 28.5162 15.6591C28.0096 16.5774 26.9646 17.1157 25.6029 17.1157ZM19.0004 4.27491C18.8579 4.27491 18.6995 4.40159 18.557 4.59159L11.9545 13.8541C11.6379 14.2816 11.6221 14.5349 11.6379 14.5824C11.6537 14.6141 11.8754 14.7407 12.4137 14.7407H25.6187C26.1412 14.7407 26.3629 14.5982 26.3946 14.5666C26.3946 14.5349 26.3787 14.2816 26.0779 13.8541L19.4754 4.60743C19.3012 4.38576 19.1429 4.27491 19.0004 4.27491Z" fill="#292D32"/>
<path d="M27.8511 29.6874H10.1653C7.9011 29.6874 6.99856 28.5949 6.66606 27.9457C6.33356 27.2966 5.98523 25.9349 7.31523 24.0982L13.6327 15.2316C13.8544 14.9149 14.2186 14.7407 14.5986 14.7407H23.4178C23.7978 14.7407 24.1619 14.9307 24.3836 15.2316L30.7011 24.1141C32.0311 25.9349 31.6669 27.2966 31.3344 27.9457C31.0019 28.5949 30.1152 29.6874 27.8511 29.6874ZM15.2003 17.1157L9.23105 25.4916C8.72439 26.1882 8.67692 26.6632 8.77192 26.8691C8.88276 27.0749 9.29442 27.3124 10.1494 27.3124H27.8352C28.6902 27.3124 29.1178 27.0749 29.2128 26.8691C29.3236 26.6632 29.2603 26.1882 28.7536 25.4916L22.7844 17.0999H15.2003V17.1157Z" fill="#292D32"/>
<path d="M19 36.0208C18.3508 36.0208 17.8125 35.4825 17.8125 34.8333V28.5C17.8125 27.8508 18.3508 27.3125 19 27.3125C19.6492 27.3125 20.1875 27.8508 20.1875 28.5V34.8333C20.1875 35.4825 19.6492 36.0208 19 36.0208Z" fill="#292D32"/>
</svg>
