<svg width="16" height="12" viewBox="0 0 16 12" fill="none" xmlns="http://www.w3.org/2000/svg">
<path d="M0 0H16V12H0V0Z" fill="#B0BEC9"/>
<path d="M0.5 0.5H15.5V11.5H0.5V0.5Z" fill="#E03232"/>
<path d="M0.5 1.5H15.5V2.5H0.5V1.5ZM0.5 3.5H15.5V4.5H0.5V3.5ZM0.5 5.5H15.5V6.5H0.5V5.5ZM0.5 7.5H15.5V8.5H0.5V7.5ZM0.5 9.5H15.5V10.5H0.5V9.5Z" fill="white"/>
<path d="M0.5 0.5H8.5V6.5H0.5V0.5Z" fill="#00206A"/>
<path d="M2.8 3.5C2.8 2.55 3.5 1.75 4.4 1.55C4.3 1.55 4.15 1.5 4 1.5C2.9 1.5 2 2.4 2 3.5C2 4.6 2.9 5.5 4 5.5C4.15 5.5 4.25 5.5 4.4 5.45C3.5 5.3 2.8 4.5 2.8 3.5Z" fill="#FCD638"/>
<path d="M5.74968 2.25C7.29968 2.25 7.39968 4.75 5.74968 4.75C4.19968 4.75 4.14968 2.25 5.74968 2.25Z" fill="#FCD638"/>
</svg>
