<svg width="41" height="41" viewBox="0 0 41 41" fill="none" xmlns="http://www.w3.org/2000/svg">
<g clip-path="url(#clip0_83_1702)">
<path d="M30.4254 7.63621C30.2888 7.63621 30.1521 7.60204 30.0325 7.53371C26.7525 5.84246 23.9167 5.12496 20.5171 5.12496C17.1346 5.12496 13.9229 5.92788 11.0017 7.53371C10.5917 7.75579 10.0792 7.60204 9.84003 7.19204C9.61794 6.78204 9.77169 6.25246 10.1817 6.03038C13.3592 4.30496 16.8442 3.41663 20.5171 3.41663C24.1559 3.41663 27.3334 4.21954 30.8184 6.01329C31.2454 6.23538 31.3992 6.74788 31.1771 7.15788C31.0234 7.46538 30.7329 7.63621 30.4254 7.63621ZM5.97919 16.605C5.80836 16.605 5.63753 16.5537 5.48378 16.4512C5.09086 16.1779 5.00544 15.6483 5.27878 15.2554C6.97002 12.8637 9.12253 10.9845 11.685 9.66913C17.0492 6.90163 23.9167 6.88454 29.2979 9.65204C31.8604 10.9675 34.0129 12.8295 35.7042 15.2041C35.9775 15.58 35.8921 16.1266 35.4992 16.4C35.1063 16.6733 34.5767 16.5879 34.3034 16.195C32.7659 14.0425 30.8184 12.3512 28.5121 11.1725C23.6092 8.66121 17.3396 8.66121 12.4538 11.1895C10.1304 12.3854 8.18294 14.0937 6.64544 16.2462C6.50878 16.4854 6.25253 16.605 5.97919 16.605ZM16.6563 37.2245C16.4342 37.2245 16.2121 37.1391 16.0584 36.9683C14.5721 35.482 13.7692 34.5254 12.6246 32.4583C11.4459 30.357 10.8309 27.7945 10.8309 25.0441C10.8309 19.9704 15.17 15.8362 20.5 15.8362C25.83 15.8362 30.1692 19.9704 30.1692 25.0441C30.1692 25.5225 29.7934 25.8983 29.315 25.8983C28.8367 25.8983 28.4609 25.5225 28.4609 25.0441C28.4609 20.91 24.8904 17.5445 20.5 17.5445C16.1096 17.5445 12.5392 20.91 12.5392 25.0441C12.5392 27.5041 13.0859 29.7762 14.1279 31.6212C15.2213 33.5858 15.9729 34.4229 17.2884 35.7554C17.6129 36.097 17.6129 36.6266 17.2884 36.9683C17.1004 37.1391 16.8784 37.2245 16.6563 37.2245ZM28.905 34.0641C26.8721 34.0641 25.0784 33.5516 23.6092 32.5437C21.0638 30.8183 19.5434 28.0166 19.5434 25.0441C19.5434 24.5658 19.9192 24.19 20.3975 24.19C20.8759 24.19 21.2517 24.5658 21.2517 25.0441C21.2517 27.4529 22.4817 29.725 24.5659 31.1258C25.7788 31.9458 27.1967 32.3387 28.905 32.3387C29.315 32.3387 29.9984 32.2875 30.6817 32.1679C31.1429 32.0825 31.5871 32.39 31.6725 32.8683C31.7579 33.3295 31.4504 33.7737 30.9721 33.8591C29.9984 34.047 29.1442 34.0641 28.905 34.0641ZM25.4713 37.5833C25.4029 37.5833 25.3175 37.5662 25.2492 37.5491C22.5329 36.7975 20.7563 35.7895 18.8942 33.9616C16.5025 31.587 15.1871 28.4266 15.1871 25.0441C15.1871 22.2766 17.5446 20.0216 20.4488 20.0216C23.3529 20.0216 25.7104 22.2766 25.7104 25.0441C25.7104 26.872 27.2992 28.3583 29.2638 28.3583C31.2284 28.3583 32.8171 26.872 32.8171 25.0441C32.8171 18.6037 27.265 13.3762 20.4317 13.3762C15.58 13.3762 11.1384 16.0754 9.13961 20.2608C8.47336 21.6445 8.13169 23.2675 8.13169 25.0441C8.13169 26.3766 8.25127 28.4779 9.27627 31.2112C9.44711 31.6554 9.22502 32.1508 8.78086 32.3045C8.33669 32.4754 7.84127 32.2362 7.68753 31.8091C6.85044 29.5712 6.44044 27.3504 6.44044 25.0441C6.44044 22.9941 6.83336 21.132 7.60211 19.5091C9.87419 14.7429 14.9138 11.6508 20.4317 11.6508C28.2046 11.6508 34.5254 17.647 34.5254 25.027C34.5254 27.7945 32.1679 30.0495 29.2638 30.0495C26.3596 30.0495 24.0021 27.7945 24.0021 25.027C24.0021 23.1991 22.4134 21.7129 20.4488 21.7129C18.4842 21.7129 16.8954 23.1991 16.8954 25.027C16.8954 27.9483 18.0229 30.6816 20.09 32.7316C21.7129 34.3375 23.2675 35.2258 25.6763 35.892C26.1375 36.0116 26.3938 36.49 26.2742 36.9341C26.1888 37.327 25.83 37.5833 25.4713 37.5833Z" fill="white"/>
</g>
<defs>
<clipPath id="clip0_83_1702">
<rect width="41" height="41" fill="white"/>
</clipPath>
</defs>
</svg>
