<svg width="15" height="13" viewBox="0 0 15 13" fill="none" xmlns="http://www.w3.org/2000/svg">
<path d="M7.5 8.75L10 6.56818M7.5 0.75V8.75V0.75ZM7.5 8.75L5 6.56818L7.5 8.75Z" stroke="#1B1B1B" stroke-width="1.5" stroke-linecap="round" stroke-linejoin="round"/>
<path d="M10.5 11.625H4.5C3.76025 11.625 3.52136 11.6215 3.33936 11.5927C2.21614 11.4148 1.33522 10.5338 1.15732 9.41063C1.1285 9.2286 1.125 8.98973 1.125 8.25C1.125 7.51027 1.1285 7.2714 1.15732 7.08938C1.33522 5.96618 2.21614 5.08523 3.33936 4.90733C3.52136 4.87853 3.76025 4.875 4.5 4.875H4.6875C4.99816 4.875 5.25 4.62316 5.25 4.3125C5.25 4.00184 4.99816 3.75 4.6875 3.75H4.5C3.80324 3.75 3.45487 3.75 3.16337 3.79617C1.55878 4.05031 0.300315 5.3088 0.0461699 6.91335C-6.42613e-08 7.20487 0 7.55325 0 8.25C0 8.94675 -6.42613e-08 9.29513 0.0461699 9.58665C0.300315 11.1912 1.55877 12.4497 3.16337 12.7038C3.45487 12.75 3.80324 12.75 4.5 12.75H10.5C11.1967 12.75 11.5451 12.75 11.8366 12.7038C13.4412 12.4497 14.6997 11.1912 14.9538 9.58665C15 9.29513 15 8.94675 15 8.25C15 7.55325 15 7.20487 14.9538 6.91335C14.6997 5.3088 13.4412 4.05031 11.8366 3.79617C11.5451 3.75 11.1967 3.75 10.5 3.75H10.3125C10.0019 3.75 9.75 4.00184 9.75 4.3125C9.75 4.62316 10.0019 4.875 10.3125 4.875H10.5C11.2397 4.875 11.4786 4.87853 11.6606 4.90733C12.7838 5.08523 13.6648 5.96618 13.8427 7.08938C13.8715 7.2714 13.875 7.51027 13.875 8.25C13.875 8.98973 13.8715 9.2286 13.8427 9.41063C13.6648 10.5338 12.7838 11.4148 11.6606 11.5927C11.4786 11.6215 11.2397 11.625 10.5 11.625Z" fill="#1B1B1B"/>
</svg>
