<svg width="24" height="24" viewBox="0 0 24 24" fill="none" xmlns="http://www.w3.org/2000/svg">
<path d="M2.90029 7.75963L3.78029 6.23542C4.30029 5.33476 5.46641 5.01498 6.37574 5.53998C7.94324 6.44498 9.2241 5.70646 9.22102 3.8918C9.22069 2.85238 10.0742 1.99413 11.1222 1.9988L13.1155 2.00643C14.0346 1.9944 14.778 2.74689 14.79 3.66605L14.7903 3.88559C14.7847 5.69525 16.0664 6.43525 17.6395 5.53059L17.8297 5.42105C18.6318 4.97189 19.6551 5.2394 20.1043 6.04143L21.1075 7.7638C21.6356 8.66913 21.3191 9.83738 20.4187 10.3568C18.8456 11.2615 18.8465 12.74 20.414 13.645C21.3147 14.165 21.6345 15.3311 21.1095 16.2404L20.2295 17.7646C19.7095 18.6653 18.5433 18.9851 17.634 18.4601C16.0665 17.5551 14.7856 18.2936 14.7887 20.1082C14.7841 21.1563 13.9356 22.0059 12.8875 22.0013L10.8943 21.9936C9.97513 22.0057 9.23178 21.2532 9.21975 20.334L9.21948 20.1145C9.22506 18.3048 7.94334 17.5648 6.37026 18.4695L6.18 18.579C5.37797 19.0282 4.35462 18.7607 3.90546 17.9586L2.90224 16.2363C2.37415 15.3309 2.69069 14.1627 3.59102 13.6432C5.1641 12.7386 5.16324 11.2601 3.59574 10.3551C2.68641 9.83008 2.38029 8.66029 2.90029 7.75963Z" stroke="#1B1B1B" stroke-width="1.5" stroke-miterlimit="10" stroke-linecap="round" stroke-linejoin="round"/>
<path d="M15.25 12C15.25 10.2051 13.7949 8.75 12 8.75C10.2051 8.75 8.75 10.2051 8.75 12C8.75 13.7949 10.2051 15.25 12 15.25C13.7949 15.25 15.25 13.7949 15.25 12Z" stroke="#1B1B1B" stroke-width="1.5"/>
</svg>
