<svg width="34" height="34" viewBox="0 0 34 34" fill="none" xmlns="http://www.w3.org/2000/svg">
<path d="M15.9942 17L21.0092 11.985C21.273 11.7196 21.4211 11.3605 21.4211 10.9863C21.4211 10.612 21.273 10.253 21.0092 9.98753C20.8775 9.85475 20.7208 9.74935 20.5481 9.67743C20.3755 9.60551 20.1903 9.56848 20.0033 9.56848C19.8163 9.56848 19.6311 9.60551 19.4585 9.67743C19.2859 9.74935 19.1292 9.85475 18.9975 9.98753L12.9908 15.9942C12.858 16.1259 12.7527 16.2826 12.6807 16.4552C12.6088 16.6278 12.5718 16.813 12.5718 17C12.5718 17.187 12.6088 17.3722 12.6807 17.5448C12.7527 17.7175 12.858 17.8742 12.9908 18.0059L18.9975 24.0834C19.1299 24.2147 19.2869 24.3185 19.4595 24.389C19.6321 24.4595 19.8169 24.4953 20.0033 24.4942C20.1898 24.4953 20.3746 24.4595 20.5472 24.389C20.7198 24.3185 20.8768 24.2147 21.0092 24.0834C21.273 23.8179 21.4211 23.4589 21.4211 23.0846C21.4211 22.7103 21.273 22.3513 21.0092 22.0859L15.9942 17Z" fill="black"/>
</svg>
