<svg width="24" height="24" viewBox="0 0 24 24" fill="none" xmlns="http://www.w3.org/2000/svg">
<path d="M2.9917 9.00044C2.86037 9.0004 2.73032 9.02625 2.60897 9.07649C2.48763 9.12673 2.37738 9.20039 2.28451 9.29325C2.19165 9.38612 2.11799 9.49637 2.06775 9.61771C2.01751 9.73906 1.99166 9.86911 1.9917 10.0004V14.0004C1.9917 14.2657 2.09706 14.52 2.28459 14.7075C2.47213 14.8951 2.72648 15.0004 2.9917 15.0004C3.25692 15.0004 3.51127 14.8951 3.69881 14.7075C3.88634 14.52 3.9917 14.2657 3.9917 14.0004V10.0004C3.99173 9.86911 3.96589 9.73906 3.91565 9.61771C3.86541 9.49637 3.79175 9.38612 3.69889 9.29325C3.60602 9.20039 3.49577 9.12673 3.37442 9.07649C3.25308 9.02625 3.12303 9.0004 2.9917 9.00044ZM20.9917 9.00044C20.8604 9.0004 20.7303 9.02625 20.609 9.07649C20.4876 9.12673 20.3774 9.20039 20.2845 9.29325C20.1916 9.38612 20.118 9.49637 20.0677 9.61771C20.0175 9.73906 19.9917 9.86911 19.9917 10.0004V14.0004C19.9917 14.2657 20.0971 14.52 20.2846 14.7075C20.4721 14.8951 20.7265 15.0004 20.9917 15.0004C21.2569 15.0004 21.5113 14.8951 21.6988 14.7075C21.8863 14.52 21.9917 14.2657 21.9917 14.0004V10.0004C21.9917 9.86911 21.9659 9.73906 21.9157 9.61771C21.8654 9.49637 21.7917 9.38612 21.6989 9.29325C21.606 9.20039 21.4958 9.12673 21.3744 9.07649C21.2531 9.02625 21.123 9.0004 20.9917 9.00044ZM16.8574 3.50044C16.9235 3.38673 16.9666 3.26109 16.9841 3.13072C17.0015 3.00034 16.9931 2.8678 16.9593 2.74069C16.9255 2.61358 16.8669 2.49439 16.7869 2.38996C16.7069 2.28553 16.6071 2.19791 16.4932 2.13212C16.3793 2.06634 16.2535 2.02368 16.1231 2.00658C15.9927 1.98949 15.8602 1.99831 15.7331 2.03252C15.6061 2.06674 15.4871 2.12568 15.3829 2.20598C15.2787 2.28627 15.1914 2.38634 15.126 2.50044L14.5118 3.56282C13.7233 3.19245 12.8629 3.00044 11.9917 3.00044C11.1205 3.00044 10.2601 3.19245 9.47156 3.56282L8.85742 2.50044C8.79197 2.38634 8.70465 2.28627 8.60046 2.20598C8.49627 2.12568 8.37726 2.06674 8.25025 2.03252C8.12324 1.99831 7.99073 1.98949 7.8603 2.00658C7.72988 2.02368 7.60411 2.06634 7.4902 2.13212C7.37629 2.19791 7.27649 2.28553 7.19651 2.38996C7.11653 2.49439 7.05794 2.61358 7.0241 2.74069C6.99027 2.8678 6.98185 3.00034 6.99933 3.13072C7.01681 3.26109 7.05985 3.38673 7.12598 3.50044L7.81848 4.69838C7.24069 5.25604 6.78116 5.92438 6.4673 6.66351C6.15344 7.40264 5.99169 8.19743 5.9917 9.00044V17.0004C5.99167 17.1318 6.01751 17.2618 6.06775 17.3832C6.11799 17.5045 6.19165 17.6148 6.28452 17.7076C6.37738 17.8005 6.48763 17.8741 6.60898 17.9244C6.73032 17.9746 6.86037 18.0005 6.9917 18.0004H8.9917V21.0004C8.9917 21.2657 9.09706 21.52 9.28459 21.7075C9.47213 21.8951 9.72648 22.0004 9.9917 22.0004C10.2569 22.0004 10.5113 21.8951 10.6988 21.7075C10.8863 21.52 10.9917 21.2657 10.9917 21.0004V18.0004H12.9917V21.0004C12.9917 21.2657 13.0971 21.52 13.2846 21.7075C13.4721 21.8951 13.7265 22.0004 13.9917 22.0004C14.2569 22.0004 14.5113 21.8951 14.6988 21.7075C14.8863 21.52 14.9917 21.2657 14.9917 21.0004V18.0004H16.9917C17.123 18.0005 17.2531 17.9746 17.3744 17.9244C17.4958 17.8741 17.606 17.8005 17.6989 17.7076C17.7917 17.6148 17.8654 17.5045 17.9156 17.3832C17.9659 17.2618 17.9917 17.1318 17.9917 17.0004V9.00044C17.9917 8.19743 17.83 7.40264 17.5161 6.66351C17.2022 5.92438 16.7427 5.25604 16.1649 4.69838L16.8574 3.50044ZM15.9917 16.0004H7.9917V11.0004H15.9917V16.0004ZM7.9917 9.00044C7.9917 7.93957 8.41313 6.92216 9.16327 6.17201C9.91342 5.42187 10.9308 5.00044 11.9917 5.00044C13.0526 5.00044 14.07 5.42187 14.8201 6.17201C15.5703 6.92216 15.9917 7.93957 15.9917 9.00044H7.9917Z" fill="black"/>
</svg>
