<svg width="24" height="24" viewBox="0 0 24 24" fill="none" xmlns="http://www.w3.org/2000/svg">
<path d="M12 13C12.5934 13 13.1734 12.824 13.6667 12.4944C14.1601 12.1648 14.5446 11.6962 14.7717 11.148C14.9987 10.5999 15.0581 9.99667 14.9424 9.41473C14.8266 8.83278 14.5409 8.29823 14.1213 7.87868C13.7018 7.45912 13.1672 7.1734 12.5853 7.05764C12.0033 6.94189 11.4001 7.0013 10.852 7.22836C10.3038 7.45542 9.83525 7.83994 9.5056 8.33329C9.17596 8.82663 9.00001 9.40665 9.00001 10C9.00001 10.7956 9.31608 11.5587 9.87869 12.1213C10.4413 12.6839 11.2044 13 12 13ZM12 9C12.1978 9 12.3911 9.05865 12.5556 9.16853C12.72 9.27841 12.8482 9.43459 12.9239 9.61731C12.9996 9.80004 13.0194 10.0011 12.9808 10.1951C12.9422 10.3891 12.847 10.5673 12.7071 10.7071C12.5673 10.847 12.3891 10.9422 12.1951 10.9808C12.0011 11.0194 11.8001 10.9996 11.6173 10.9239C11.4346 10.8482 11.2784 10.72 11.1685 10.5556C11.0587 10.3911 11 10.1978 11 10C11 9.73478 11.1054 9.48043 11.2929 9.29289C11.4804 9.10535 11.7348 9 12 9ZM21.59 18.16C21.1017 16.5405 20.2106 15.0714 19 13.89C19.6739 12.6721 20.0183 11.2994 19.9993 9.90759C19.9802 8.51579 19.5984 7.15305 18.8915 5.954C18.1845 4.75496 17.177 3.7611 15.9684 3.07064C14.7598 2.38018 13.3919 2.01701 12 2.01701C10.6081 2.01701 9.24025 2.38018 8.03164 3.07064C6.82304 3.7611 5.8155 4.75496 5.10857 5.954C4.40165 7.15305 4.0198 8.51579 4.00076 9.90759C3.98172 11.2994 4.32615 12.6721 5.00001 13.89C3.78232 15.0675 2.88711 16.5377 2.40001 18.16C2.26984 18.6049 2.24454 19.0739 2.32608 19.5302C2.40763 19.9865 2.59381 20.4177 2.87001 20.79C3.15142 21.1685 3.51811 21.4753 3.94032 21.6856C4.36253 21.8958 4.82837 22.0035 5.30001 22H18.7C19.17 22.002 19.6338 21.8935 20.0542 21.6833C20.4745 21.4731 20.8396 21.1671 21.12 20.79C21.3962 20.4177 21.5824 19.9865 21.6639 19.5302C21.7455 19.0739 21.7202 18.6049 21.59 18.16ZM12 4C13.1867 4 14.3467 4.35189 15.3334 5.01118C16.3201 5.67047 17.0892 6.60754 17.5433 7.7039C17.9974 8.80025 18.1162 10.0067 17.8847 11.1705C17.6532 12.3344 17.0818 13.4035 16.2427 14.2426C15.4035 15.0818 14.3344 15.6532 13.1706 15.8847C12.0067 16.1162 10.8003 15.9974 9.70391 15.5433C8.60755 15.0891 7.67048 14.3201 7.01119 13.3334C6.35191 12.3467 6.00001 11.1867 6.00001 10C6.00001 8.4087 6.63215 6.88257 7.75737 5.75736C8.88259 4.63214 10.4087 4 12 4ZM19.52 19.59C19.4259 19.7188 19.3024 19.8232 19.1598 19.8945C19.0171 19.9658 18.8595 20.002 18.7 20H5.30001C5.14054 20.002 4.98291 19.9658 4.84026 19.8945C4.69761 19.8232 4.57409 19.7188 4.48001 19.59C4.3901 19.4661 4.32981 19.3233 4.30381 19.1724C4.2778 19.0216 4.28677 18.8668 4.33001 18.72C4.68897 17.5113 5.33383 16.4068 6.21001 15.5C6.95711 16.2836 7.85549 16.9073 8.85072 17.3335C9.84596 17.7597 10.9174 17.9795 12 17.9795C13.0827 17.9795 14.1541 17.7597 15.1493 17.3335C16.1445 16.9073 17.0429 16.2836 17.79 15.5C18.6662 16.4068 19.311 17.5113 19.67 18.72C19.7133 18.8668 19.7222 19.0216 19.6962 19.1724C19.6702 19.3233 19.6099 19.4661 19.52 19.59Z" fill="black"/>
</svg>
