<svg width="38" height="38" viewBox="0 0 38 38" fill="none" xmlns="http://www.w3.org/2000/svg">
<path d="M23.7025 36.0207H14.2025C5.605 36.0207 1.93166 32.3473 1.93166 23.7498V14.2498C1.93166 5.65234 5.605 1.979 14.2025 1.979H17.3692C18.0183 1.979 18.5567 2.51734 18.5567 3.1665C18.5567 3.81567 18.0183 4.354 17.3692 4.354H14.2025C6.90333 4.354 4.30666 6.95067 4.30666 14.2498V23.7498C4.30666 31.049 6.90333 33.6457 14.2025 33.6457H23.7025C31.0017 33.6457 33.5983 31.049 33.5983 23.7498V20.5832C33.5983 19.934 34.1367 19.3957 34.7858 19.3957C35.435 19.3957 35.9733 19.934 35.9733 20.5832V23.7498C35.9733 32.3473 32.3158 36.0207 23.7025 36.0207Z" fill="#292D32"/>
<path d="M20.235 24.1298C19.9975 24.1298 19.7758 24.0665 19.57 23.924C19.2375 23.7023 19.0475 23.3382 19.0475 22.9423C19.0475 22.7682 19.0317 22.5782 19 22.3882C18.8892 21.549 18.5092 20.8048 17.8758 20.1557C17.2267 19.5065 16.435 19.0948 15.5642 18.984C15.4375 18.9682 15.2317 18.9523 15.0417 18.9682C14.6458 18.9998 14.25 18.8257 14.0125 18.509C13.775 18.1923 13.7117 17.7648 13.8383 17.3848C14.0283 16.8465 14.3292 16.3398 14.6775 15.944L16.625 13.5057C20.0133 9.27816 26.8375 4.21149 31.8725 2.20066C33.0283 1.75732 34.2475 2.01066 35.0867 2.84982C35.9575 3.72066 36.2108 4.95566 35.7517 6.07982C33.7408 11.099 28.6742 17.939 24.4625 21.3115L21.9767 23.3065C21.4858 23.6548 21.09 23.8923 20.6783 24.0507C20.5358 24.0982 20.3775 24.1298 20.235 24.1298ZM16.9733 16.894C17.9392 17.2107 18.81 17.749 19.5542 18.4773C20.2825 19.2057 20.805 20.0448 21.1058 20.9473L22.9742 19.4432C26.9167 16.2765 31.6667 9.87982 33.5508 5.17732C33.6775 4.87649 33.535 4.65482 33.4083 4.51232C33.3292 4.43316 33.1075 4.25899 32.7433 4.40149C28.0567 6.28566 21.66 11.0357 18.4933 14.9782L16.9733 16.894Z" fill="#292D32"/>
<path d="M12.1917 29.6877C11.1783 29.6877 10.2125 29.2919 9.48417 28.5635C8.645 27.7244 8.23333 26.5685 8.37583 25.381L8.70833 22.2777C9.05667 19.0635 11.6692 16.6885 14.9467 16.6252C15.2 16.6094 15.5167 16.6252 15.8175 16.641C17.2583 16.831 18.5408 17.4644 19.5542 18.4935C20.5675 19.5069 21.185 20.7102 21.3592 22.0719C21.4067 22.3727 21.4225 22.6735 21.4225 22.9585C21.4225 24.6844 20.7575 26.3152 19.5383 27.5344C18.5408 28.5319 17.2425 29.1494 15.77 29.3394L12.635 29.6719C12.4767 29.6877 12.3342 29.6877 12.1917 29.6877ZM15.2 18.9844C15.1525 18.9844 15.0892 18.9844 15.0417 18.9844C13.2208 19.0319 11.305 20.251 11.0675 22.531L10.735 25.6502C10.6875 26.1094 10.8458 26.5685 11.1625 26.8852C11.4792 27.2019 11.9225 27.3602 12.3658 27.3127L15.485 26.9802C16.4033 26.8694 17.2267 26.4735 17.8442 25.856C18.6042 25.0802 19.0317 24.0669 19.0317 22.9585C19.0317 22.7844 19.0158 22.5944 18.9842 22.4044C18.8733 21.5652 18.4933 20.821 17.86 20.1719C17.2108 19.5227 16.4192 19.111 15.5483 19.0002C15.4692 18.9844 15.3425 18.9844 15.2 18.9844Z" fill="#292D32"/>
<path d="M25.0483 20.1556C24.3992 20.1556 23.8608 19.6173 23.8608 18.9681C23.8608 16.324 21.7075 14.1548 19.0475 14.1548C18.3983 14.1548 17.86 13.6165 17.86 12.9673C17.86 12.3181 18.3983 11.7798 19.0475 11.7798C23.0058 11.7798 26.2358 14.994 26.2358 18.9681C26.2358 19.6173 25.7133 20.1556 25.0483 20.1556Z" fill="#292D32"/>
</svg>
