<svg width="19" height="19" viewBox="0 0 19 19" fill="none" xmlns="http://www.w3.org/2000/svg">
<path fill-rule="evenodd" clip-rule="evenodd" d="M11.4457 12.5655C10.5363 13.1315 9.46257 13.4585 8.3125 13.4585C5.03331 13.4585 2.375 10.8002 2.375 7.521C2.375 4.24181 5.03331 1.5835 8.3125 1.5835C11.5917 1.5835 14.25 4.24181 14.25 7.521C14.25 9.07718 13.6513 10.4935 12.6717 11.5523L17.1848 16.0654C17.494 16.3745 17.494 16.8758 17.1848 17.185C16.8756 17.4941 16.3744 17.4941 16.0652 17.185L11.4457 12.5655ZM12.6667 7.521C12.6667 9.92574 10.7172 11.8752 8.3125 11.8752C5.90776 11.8752 3.95833 9.92574 3.95833 7.521C3.95833 5.11626 5.90776 3.16683 8.3125 3.16683C10.7172 3.16683 12.6667 5.11626 12.6667 7.521Z" fill="black"/>
</svg>
