<svg width="24" height="24" viewBox="0 0 24 24" fill="none" xmlns="http://www.w3.org/2000/svg">
<g clip-path="url(#clip0_22_1888)">
<path d="M2 22L16 17L7 8L2 22Z" fill="#323232"/>
<path d="M14.53 12.53L20.12 6.93998C20.61 6.44998 21.4 6.44998 21.89 6.93998L22.48 7.52998L23.54 6.46998L22.95 5.87998C21.88 4.80998 20.13 4.80998 19.06 5.87998L13.47 11.47L14.53 12.53Z" fill="#323232"/>
<path d="M10.06 6.87999L9.46997 7.46999L10.53 8.52999L11.12 7.93999C12.19 6.86999 12.19 5.11999 11.12 4.04999L10.53 3.45999L9.46997 4.52999L10.06 5.11999C10.54 5.59999 10.54 6.39999 10.06 6.87999Z" fill="#323232"/>
<path d="M17.06 11.88L15.47 13.47L16.53 14.53L18.12 12.94C18.61 12.45 19.4 12.45 19.89 12.94L21.5 14.55L22.56 13.49L20.95 11.88C19.87 10.81 18.13 10.81 17.06 11.88Z" fill="#323232"/>
<path d="M15.06 5.87999L11.47 9.46999L12.53 10.53L16.12 6.93999C17.19 5.86999 17.19 4.11999 16.12 3.04999L14.53 1.45999L13.47 2.51999L15.06 4.10999C15.54 4.59999 15.54 5.39999 15.06 5.87999Z" fill="#323232"/>
</g>
<defs>
<clipPath id="clip0_22_1888">
<rect width="24" height="24" fill="white"/>
</clipPath>
</defs>
</svg>
