<svg width="21" height="24" viewBox="0 0 21 24" fill="none" xmlns="http://www.w3.org/2000/svg">
<path fill-rule="evenodd" clip-rule="evenodd" d="M11.0884 2C11.6407 2 12.0884 1.55228 12.0884 1C12.0884 0.447715 11.6407 0 11.0884 0C10.5361 0 10.0884 0.447715 10.0884 1C10.0884 1.55228 10.5361 2 11.0884 2ZM10.5884 2.96857L13.1637 5.39979L17.8364 3.02409L15.4172 10.75H5.71974L4 3.60645L7.99507 5.4168L10.5884 2.96857ZM10.5884 5.0314L8.29282 7.19855L6.17678 6.23967L6.90148 9.24998H14.3151L15.3403 5.97588L12.902 7.21557L10.5884 5.0314ZM13.5 13.5H7.5V22.5H13.5V13.5ZM6 12V16H0V24H6H7H14H15H21V16H15V12H6ZM15.5 17.5H19.5V22.5H15.5V17.5ZM5.5 17.5H1.5V22.5H5.5V17.5ZM6.08838 2C6.08838 2.55228 5.64066 3 5.08838 3C4.53609 3 4.08838 2.55228 4.08838 2C4.08838 1.44772 4.53609 1 5.08838 1C5.64066 1 6.08838 1.44772 6.08838 2ZM16.0884 3C16.6407 3 17.0884 2.55228 17.0884 2C17.0884 1.44772 16.6407 1 16.0884 1C15.5361 1 15.0884 1.44772 15.0884 2C15.0884 2.55228 15.5361 3 16.0884 3Z" fill="black"/>
</svg>
