<svg width="38" height="38" viewBox="0 0 38 38" fill="none" xmlns="http://www.w3.org/2000/svg">
<path d="M7.91667 37.6042C5.28833 37.6042 2.81833 36.2108 1.48833 33.9467C0.77583 32.8067 0.395832 31.4608 0.395832 30.0833C0.395832 25.935 3.76833 22.5625 7.91667 22.5625C12.065 22.5625 15.4375 25.935 15.4375 30.0833C15.4375 31.4608 15.0575 32.8067 14.345 33.9625C13.015 36.2109 10.545 37.6042 7.91667 37.6042ZM7.91667 24.9375C5.0825 24.9375 2.77083 27.2492 2.77083 30.0833C2.77083 31.0175 3.02417 31.9358 3.515 32.7275C4.44917 34.3108 6.09583 35.2292 7.91667 35.2292C9.7375 35.2292 11.3842 34.295 12.3183 32.7433C12.8092 31.9358 13.0625 31.0333 13.0625 30.0833C13.0625 27.2492 10.7508 24.9375 7.91667 24.9375Z" fill="#292D32"/>
<path d="M7.01398 32.8383C6.71315 32.8383 6.41232 32.7275 6.17482 32.49L4.60731 30.9225C4.14815 30.4634 4.14815 29.7033 4.60731 29.2441C5.06648 28.7849 5.82648 28.7849 6.28565 29.2441L7.04565 30.0042L9.57898 27.6608C10.054 27.2174 10.814 27.2492 11.2573 27.7242C11.7006 28.1992 11.669 28.9592 11.194 29.4025L7.82148 32.5216C7.58398 32.7274 7.29898 32.8383 7.01398 32.8383Z" fill="#292D32"/>
<path d="M9.8009 12.3656C9.4209 12.3656 9.07257 12.1915 8.83507 11.8748C8.56591 11.5106 8.53424 11.0356 8.74007 10.6398C9.00924 10.1014 9.38924 9.57897 9.88007 9.10397L15.0259 3.94228C17.6542 1.32979 21.9292 1.32979 24.5576 3.94228L27.3284 6.76066C28.5001 7.9165 29.2126 9.46816 29.2917 11.1148C29.3076 11.479 29.1651 11.8273 28.8959 12.0648C28.6267 12.3023 28.2626 12.4131 27.9142 12.3498C27.5976 12.3023 27.2651 12.2865 26.9167 12.2865H11.0834C10.7034 12.2865 10.3392 12.3181 9.97507 12.3656C9.92757 12.3656 9.86424 12.3656 9.8009 12.3656ZM12.4451 9.89563H26.6317C26.4259 9.3573 26.0934 8.86648 25.6501 8.42315L22.8634 5.60477C21.1692 3.92643 18.3984 3.92643 16.6884 5.60477L12.4451 9.89563Z" fill="#292D32"/>
<path d="M26.9166 36.021H12.0808C11.5741 36.021 11.1308 35.7043 10.9566 35.2452C10.7825 34.7702 10.925 34.2477 11.305 33.931C11.685 33.6143 12.0333 33.2027 12.2866 32.7593C12.7933 31.9518 13.0466 31.0335 13.0466 30.0993C13.0466 27.2652 10.735 24.9535 7.9008 24.9535C6.4283 24.9535 5.01913 25.5868 4.03747 26.711C3.70497 27.0752 3.18247 27.2177 2.7233 27.0435C2.26414 26.8694 1.94747 26.426 1.94747 25.9352V19.0002C1.94747 14.1235 4.9558 10.5927 9.62664 10.0068C10.0541 9.94351 10.545 9.896 11.0516 9.896H26.885C27.265 9.896 27.7558 9.91183 28.2625 9.99099C32.9333 10.5293 35.9891 14.076 35.9891 19.0002V26.9168C36.0208 32.3635 32.3633 36.021 26.9166 36.021ZM14.535 33.646H26.9166C31.0016 33.646 33.6458 31.0018 33.6458 26.9168V19.0002C33.6458 15.2952 31.4766 12.746 27.9616 12.3343C27.5816 12.271 27.2491 12.271 26.9166 12.271H11.0833C10.7033 12.271 10.3391 12.3026 9.97497 12.3501C6.49163 12.7935 4.35414 15.3268 4.35414 19.0002V23.4652C5.4308 22.8793 6.6658 22.5627 7.91664 22.5627C12.065 22.5627 15.4375 25.9352 15.4375 30.0835C15.4375 31.3343 15.1208 32.5693 14.535 33.646Z" fill="#292D32"/>
<path d="M34.8333 27.3123H30.0833C27.6767 27.3123 25.7292 25.3648 25.7292 22.9582C25.7292 20.5515 27.6767 18.604 30.0833 18.604H34.8333C35.4825 18.604 36.0208 19.1423 36.0208 19.7915C36.0208 20.4407 35.4825 20.979 34.8333 20.979H30.0833C28.9908 20.979 28.1042 21.8657 28.1042 22.9582C28.1042 24.0507 28.9908 24.9373 30.0833 24.9373H34.8333C35.4825 24.9373 36.0208 25.4757 36.0208 26.1248C36.0208 26.774 35.4825 27.3123 34.8333 27.3123Z" fill="#292D32"/>
</svg>
