<svg width="24" height="24" viewBox="0 0 24 24" fill="none" xmlns="http://www.w3.org/2000/svg">
<path d="M3.19467 2L4.79734 19.9943L11.9895 22L19.2014 19.9869L20.8053 2H3.19467ZM17.476 6.12274L16.9423 12.1174L16.9442 12.1498L16.9417 12.2239V12.2232L16.5625 16.4146L16.5207 16.7869L12 18.0372V18.0378L11.9963 18.041L7.48367 16.7831L7.17793 13.3179H9.39093L9.54785 15.0802L12.0006 15.7446L12 15.7457L14.4614 15.0714L14.7217 12.2021H9.57589L9.53173 11.717L9.4308 10.5806L9.37856 9.97038H14.9173L15.119 7.73868H6.68232L6.638 7.2542L6.53774 6.1172L6.48482 5.507H17.5289L17.476 6.12274Z" fill="black"/>
</svg>
