<svg width="24" height="24" viewBox="0 0 24 24" fill="none" xmlns="http://www.w3.org/2000/svg">
<path d="M20.47 1.99999H3.53C3.33958 1.99734 3.1505 2.03223 2.97356 2.10267C2.79663 2.17311 2.6353 2.27771 2.4988 2.4105C2.36229 2.54329 2.25328 2.70167 2.17799 2.8766C2.1027 3.05152 2.06261 3.23957 2.06 3.42999V20.57C2.06261 20.7604 2.1027 20.9485 2.17799 21.1234C2.25328 21.2983 2.36229 21.4567 2.4988 21.5895C2.6353 21.7223 2.79663 21.8269 2.97356 21.8973C3.1505 21.9677 3.33958 22.0026 3.53 22H20.47C20.6604 22.0026 20.8495 21.9677 21.0264 21.8973C21.2034 21.8269 21.3647 21.7223 21.5012 21.5895C21.6377 21.4567 21.7467 21.2983 21.822 21.1234C21.8973 20.9485 21.9374 20.7604 21.94 20.57V3.42999C21.9374 3.23957 21.8973 3.05152 21.822 2.8766C21.7467 2.70167 21.6377 2.54329 21.5012 2.4105C21.3647 2.27771 21.2034 2.17311 21.0264 2.10267C20.8495 2.03223 20.6604 1.99734 20.47 1.99999ZM8.09 18.74H5.09V9.73999H8.09V18.74ZM6.59 8.47999C6.17626 8.47999 5.77947 8.31563 5.48691 8.02307C5.19435 7.73052 5.03 7.33372 5.03 6.91999C5.03 6.50625 5.19435 6.10946 5.48691 5.8169C5.77947 5.52434 6.17626 5.35999 6.59 5.35999C6.80969 5.33507 7.03217 5.35684 7.24287 5.42387C7.45357 5.4909 7.64774 5.60168 7.81265 5.74895C7.97757 5.89622 8.10952 6.07667 8.19987 6.27847C8.29021 6.48027 8.33692 6.69888 8.33692 6.91999C8.33692 7.14109 8.29021 7.3597 8.19987 7.5615C8.10952 7.76331 7.97757 7.94375 7.81265 8.09103C7.64774 8.2383 7.45357 8.34907 7.24287 8.4161C7.03217 8.48313 6.80969 8.5049 6.59 8.47999ZM18.91 18.74H15.91V13.91C15.91 12.7 15.48 11.91 14.39 11.91C14.0527 11.9125 13.7242 12.0183 13.4488 12.2132C13.1735 12.4081 12.9645 12.6827 12.85 13C12.7717 13.235 12.7378 13.4826 12.75 13.73V18.73H9.75C9.75 18.73 9.75 10.55 9.75 9.72999H12.75V11C13.0225 10.5271 13.4189 10.1375 13.8964 9.87319C14.374 9.60887 14.9146 9.47984 15.46 9.49999C17.46 9.49999 18.91 10.79 18.91 13.56V18.74Z" fill="black"/>
</svg>
