<svg width="16" height="12" viewBox="0 0 16 12" fill="none" xmlns="http://www.w3.org/2000/svg">
<path d="M16 0H0V12H16V0Z" fill="#B0BEC9"/>
<path d="M15.5 0.5H0.5V11.5H15.5V0.5Z" fill="#0035A0"/>
<path d="M9.5 0.5H6.5V11.5H9.5V0.5Z" fill="white"/>
<path d="M15.5 4.5H0.5V7.5H15.5V4.5Z" fill="white"/>
<path d="M8 7.85938L12.9625 11.5H15.5V9.64062L10.5375 6L15.5 2.35938V0.5H12.9625L8 4.14062L3.0375 0.5H0.5V2.35938L5.4625 6L0.5 9.64062V11.5H3.0375L8 7.85938Z" fill="white"/>
<path d="M8 7.24063L13.8094 11.5H15.5V10.2594L9.69063 6L15.5 1.74062V0.5H13.8094L8 4.75938L2.19062 0.5H0.5V1.74062L6.30937 6L0.5 10.2594V11.5H2.19062L8 7.24063Z" fill="#E03232"/>
<path d="M15.5 5H9V0.5H7V5H0.5V7H7V11.5H9V7H15.5V5Z" fill="#E03232"/>
</svg>
