<svg width="16" height="12" viewBox="0 0 16 12" fill="none" xmlns="http://www.w3.org/2000/svg">
<path d="M0 0H16V12H0V0Z" fill="#B0BEC9"/>
<path d="M0.5 8H15.5V11.5H0.5V8Z" fill="#E03232"/>
<path d="M0.5 4H15.5V8H0.5V4Z" fill="#0035A0"/>
<path d="M15.5 0.5H0.5V4H2.5V6.45C2.5 8.4 5 9 5 9C5 9 7.5 8.4 7.5 6.45V4H15.5V0.5Z" fill="white"/>
<path d="M3.05078 6.5C3.30078 8.05 5.00078 8.5 5.00078 8.5C5.00078 8.5 6.70078 8.05 6.95078 6.5H3.05078Z" fill="#0035A0"/>
<path d="M7.00078 3H3.00078C3.00078 3.2 2.95078 6.45 3.05078 6.5H4.75078V5.5H3.75078V5H4.75078V4.5H4.25078V4H4.75078V3.5H5.25078V4H5.75078V4.5H5.25078V5H6.25078V5.5H5.25078V6.5H6.95078C7.05078 6.45 7.00078 3.2 7.00078 3Z" fill="#D80027"/>
</svg>
