<svg width="20" height="20" viewBox="0 0 20 20" fill="none" xmlns="http://www.w3.org/2000/svg">
<path d="M7.64147 12.9834C7.48314 12.9834 7.3248 12.925 7.1998 12.8C6.95814 12.5584 6.95814 12.1584 7.1998 11.9167L11.9165 7.20005C12.1581 6.95838 12.5581 6.95838 12.7998 7.20005C13.0415 7.44172 13.0415 7.84172 12.7998 8.08338L8.08314 12.8C7.96647 12.925 7.7998 12.9834 7.64147 12.9834Z" fill="#FF2020"/>
<path d="M12.3581 12.9834C12.1998 12.9834 12.0415 12.925 11.9165 12.8L7.1998 8.08338C6.95814 7.84172 6.95814 7.44172 7.1998 7.20005C7.44147 6.95838 7.84147 6.95838 8.08314 7.20005L12.7998 11.9167C13.0415 12.1584 13.0415 12.5584 12.7998 12.8C12.6748 12.925 12.5165 12.9834 12.3581 12.9834Z" fill="#FF2020"/>
<path d="M12.4998 18.9583H7.49984C2.97484 18.9583 1.0415 17.025 1.0415 12.5V7.49996C1.0415 2.97496 2.97484 1.04163 7.49984 1.04163H12.4998C17.0248 1.04163 18.9582 2.97496 18.9582 7.49996V12.5C18.9582 17.025 17.0248 18.9583 12.4998 18.9583ZM7.49984 2.29163C3.65817 2.29163 2.2915 3.65829 2.2915 7.49996V12.5C2.2915 16.3416 3.65817 17.7083 7.49984 17.7083H12.4998C16.3415 17.7083 17.7082 16.3416 17.7082 12.5V7.49996C17.7082 3.65829 16.3415 2.29163 12.4998 2.29163H7.49984Z" fill="#FF2020"/>
</svg>
