<svg width="24" height="24" viewBox="0 0 24 24" fill="none" xmlns="http://www.w3.org/2000/svg">
<path d="M13 12.6955C13.0199 12.6821 13.0483 12.6663 13.0894 12.6473C13.2299 12.5824 13.3602 12.5467 13.5566 12.4929C13.6679 12.4625 13.8004 12.4262 13.9681 12.3755C14.3434 12.2619 14.8853 12.0706 15.3166 11.625C15.7829 11.1434 16 10.4984 16 9.72222L16 9.71229C16.0001 9.48053 16.0006 8.57391 15.485 7.70496C14.9085 6.73343 13.809 6 12 6C11.0937 6 10.347 6.20736 9.74801 6.56972C9.15082 6.93099 8.7558 7.41273 8.49915 7.87851C8.24562 8.33861 8.12352 8.78846 8.06331 9.11622C8.03282 9.28222 8.01709 9.42307 8.00893 9.52678C8.00483 9.57881 8.0026 9.62201 8.00139 9.65494C8.00079 9.67142 8.00044 9.68538 8.00024 9.69664L8.00004 9.7115L8 9.71739L7.99999 9.71994L7.99999 9.72111L8 9.72222C8 10.2745 8.4477 10.7222 8.99999 10.7222C9.54924 10.7222 9.99507 10.2794 9.99995 9.73131L9.99996 9.729C10.0002 9.72205 10.001 9.70613 10.0028 9.68373C10.0063 9.63857 10.014 9.56673 10.0304 9.47753C10.064 9.29488 10.1294 9.06417 10.2508 8.84372C10.3692 8.62894 10.5367 8.43013 10.7832 8.28097C11.0279 8.13292 11.4062 8 12 8C13.191 8 13.5915 8.43324 13.765 8.7256C13.9917 9.10755 14 9.54791 14 9.72222C14 10.1098 13.903 10.2098 13.8802 10.2333C13.8235 10.2919 13.7041 10.3658 13.389 10.4612C13.3375 10.4767 13.2708 10.4951 13.1939 10.5162C12.9311 10.5885 12.5491 10.6936 12.2498 10.8321C11.7814 11.0488 11.2823 11.4296 11.0505 12.1305C11.0171 12.2318 11 12.3378 11 12.4444L11 13.2497C11 13.802 11.4477 14.25 12 14.25C12.5523 14.25 13 13.8023 13 13.25L13 12.6955Z" fill="black"/>
<path d="M12 18C12.5523 18 13 17.5523 13 17C13 16.4477 12.5523 16 12 16C11.4477 16 11 16.4477 11 17C11 17.5523 11.4477 18 12 18Z" fill="black"/>
<path fill-rule="evenodd" clip-rule="evenodd" d="M12 22C17.5228 22 22 17.5228 22 12C22 6.47715 17.5228 2 12 2C6.47715 2 2 6.47715 2 12C2 17.5228 6.47715 22 12 22ZM12 20C16.4183 20 20 16.4183 20 12C20 7.58172 16.4183 4 12 4C7.58172 4 4 7.58172 4 12C4 16.4183 7.58172 20 12 20Z" fill="black"/>
</svg>
