<svg width="38" height="38" viewBox="0 0 38 38" fill="none" xmlns="http://www.w3.org/2000/svg">
<path d="M29.2919 32.0625H22.9586C22.3094 32.0625 21.7711 31.5242 21.7711 30.875C21.7711 30.2258 22.3094 29.6875 22.9586 29.6875H29.2919C29.9411 29.6875 30.4794 30.2258 30.4794 30.875C30.4794 31.5242 29.9411 32.0625 29.2919 32.0625Z" fill="#292D32"/>
<path d="M26.1252 35.2293C25.4761 35.2293 24.9377 34.691 24.9377 34.0418V27.7085C24.9377 27.0593 25.4761 26.521 26.1252 26.521C26.7744 26.521 27.3127 27.0593 27.3127 27.7085V34.0418C27.3127 34.691 26.7744 35.2293 26.1252 35.2293Z" fill="#292D32"/>
<path d="M19.2536 18.3982C19.2061 18.3982 19.1744 18.3982 19.1269 18.3982C19.0477 18.3823 18.9369 18.3823 18.8419 18.3982C14.2502 18.2557 10.7827 14.6457 10.7827 10.1965C10.7669 8.0115 11.6219 5.95317 13.1736 4.4015C14.7252 2.84984 16.7836 1.979 18.9844 1.979C23.5127 1.979 27.2019 5.66817 27.2019 10.1965C27.2019 14.6457 23.7344 18.2398 19.3011 18.3982C19.2852 18.3982 19.2694 18.3982 19.2536 18.3982ZM18.9844 4.354C17.4169 4.354 15.9602 4.9715 14.8519 6.064C13.7594 7.17234 13.1577 8.629 13.1577 10.1807C13.1577 13.3473 15.6277 15.9123 18.7786 16.0073C18.8736 15.9915 19.0794 15.9915 19.2852 16.0073C22.4044 15.8648 24.8269 13.3157 24.8269 10.1807C24.8269 6.98234 22.1986 4.354 18.9844 4.354Z" fill="#292D32"/>
<path d="M18.9844 35.7198C15.7544 35.7198 12.6986 34.8807 10.3869 33.329C8.18608 31.8565 6.98275 29.8457 6.98275 27.6765C6.98275 25.5073 8.20192 23.5123 10.3869 22.0557C15.1211 18.889 22.8161 18.889 27.5502 22.0557C28.0886 22.4198 28.2469 23.164 27.8827 23.7023C27.5186 24.2565 26.7744 24.399 26.2361 24.0348C22.2936 21.4065 15.6436 21.4065 11.7011 24.0348C10.1811 25.0482 9.35775 26.3307 9.35775 27.6765C9.35775 29.0223 10.1811 30.3365 11.7011 31.3498C13.6169 32.6323 16.1977 33.329 18.9686 33.329C19.6177 33.329 20.1561 33.8673 20.1561 34.5165C20.1561 35.1657 19.6336 35.7198 18.9844 35.7198Z" fill="#292D32"/>
</svg>
