<svg width="24" height="24" viewBox="0 0 24 24" fill="none" xmlns="http://www.w3.org/2000/svg">
<g clip-path="url(#clip0_22_1932)">
<path d="M15.904 13.0506L13.7827 15.1719L19.7789 21.1681L21.9002 19.0468L15.904 13.0506Z" fill="#323232"/>
<path d="M17.5 10C19.43 10 21 8.43 21 6.5C21 5.92 20.84 5.38 20.59 4.9L17.89 7.6L16.4 6.11L19.1 3.41C18.62 3.16 18.08 3 17.5 3C15.57 3 14 4.57 14 6.5C14 6.91 14.08 7.3 14.21 7.66L12.36 9.51L10.58 7.73L11.29 7.02L9.87998 5.61L12 3.49C10.83 2.32 8.92998 2.32 7.75998 3.49L4.21998 7.03L5.62998 8.44H2.80998L2.09998 9.15L5.63998 12.69L6.34998 11.98V9.15L7.75998 10.56L8.46998 9.85L10.25 11.63L2.83998 19.04L4.95998 21.16L16.34 9.79C16.7 9.92 17.09 10 17.5 10Z" fill="#323232"/>
</g>
<defs>
<clipPath id="clip0_22_1932">
<rect width="24" height="24" fill="white"/>
</clipPath>
</defs>
</svg>
