<svg width="38" height="38" viewBox="0 0 38 38" fill="none" xmlns="http://www.w3.org/2000/svg">
<path d="M23.75 36.0207H14.25C5.6525 36.0207 1.97916 32.3473 1.97916 23.7498V14.2498C1.97916 5.65234 5.6525 1.979 14.25 1.979H23.75C32.3475 1.979 36.0208 5.65234 36.0208 14.2498V23.7498C36.0208 32.3473 32.3475 36.0207 23.75 36.0207ZM14.25 4.354C6.95083 4.354 4.35416 6.95067 4.35416 14.2498V23.7498C4.35416 31.049 6.95083 33.6457 14.25 33.6457H23.75C31.0492 33.6457 33.6458 31.049 33.6458 23.7498V14.2498C33.6458 6.95067 31.0492 4.354 23.75 4.354H14.25Z" fill="#292D32"/>
<path d="M13.3316 18.4459C11.0041 18.4459 9.10416 16.5459 9.10416 14.2184C9.10416 11.8909 11.0041 9.9751 13.3316 9.9751C15.6591 9.9751 17.5592 11.8751 17.5592 14.2184C17.5592 16.5618 15.675 18.4459 13.3316 18.4459ZM13.3316 12.3501C12.3025 12.3501 11.4792 13.1893 11.4792 14.2184C11.4792 15.2476 12.3183 16.0709 13.3316 16.0709C14.345 16.0709 15.1842 15.2318 15.1842 14.2184C15.1842 13.2051 14.3608 12.3501 13.3316 12.3501Z" fill="#292D32"/>
<path d="M13.3316 28.025C11.0041 28.025 9.10416 26.125 9.10416 23.7817C9.10416 21.4384 11.0041 19.5542 13.3316 19.5542C15.6591 19.5542 17.5592 21.4542 17.5592 23.7817C17.5592 26.1092 15.675 28.025 13.3316 28.025ZM13.3316 21.9292C12.3025 21.9292 11.4792 22.7684 11.4792 23.7817C11.4792 24.795 12.3183 25.65 13.3316 25.65C14.345 25.65 15.1842 24.8109 15.1842 23.7817C15.1842 22.7525 14.3608 21.9292 13.3316 21.9292Z" fill="#292D32"/>
<path d="M16.0865 23.6548C15.7224 23.6548 15.3741 23.4965 15.1366 23.1798C14.7407 22.6573 14.8516 21.9132 15.3741 21.5173L26.9957 12.8248C27.5182 12.429 28.2624 12.5398 28.6582 13.0623C29.054 13.5848 28.9433 14.329 28.4208 14.7248L16.799 23.4173C16.5774 23.5757 16.3399 23.6548 16.0865 23.6548Z" fill="#292D32"/>
<path d="M27.7082 25.3809C27.4549 25.3809 27.2174 25.3018 26.9957 25.1434L15.3741 16.4509C14.8516 16.0551 14.7407 15.3109 15.1366 14.7884C15.5324 14.2659 16.2765 14.1551 16.799 14.5509L28.4208 23.2434C28.9433 23.6392 29.054 24.3834 28.6582 24.9059C28.4207 25.2226 28.0724 25.3809 27.7082 25.3809Z" fill="#292D32"/>
</svg>
