<svg width="9" height="15" viewBox="0 0 9 15" fill="none" xmlns="http://www.w3.org/2000/svg">
<path d="M3.4394 7.4685L8.47934 2.42856C8.7445 2.16181 8.89334 1.80097 8.89334 1.42485C8.89334 1.04872 8.7445 0.687881 8.47934 0.421131C8.34698 0.287689 8.18952 0.181773 8.01603 0.109493C7.84254 0.037213 7.65645 0 7.4685 0C7.28056 0 7.09447 0.037213 6.92098 0.109493C6.74748 0.181773 6.59002 0.287689 6.45767 0.421131L0.421131 6.45767C0.287689 6.59002 0.181774 6.74748 0.109494 6.92097C0.0372136 7.09447 0 7.28055 0 7.4685C0 7.65645 0.0372136 7.84253 0.109494 8.01603C0.181774 8.18952 0.287689 8.34698 0.421131 8.47934L6.45767 14.5871C6.5907 14.719 6.74847 14.8234 6.92193 14.8943C7.09539 14.9651 7.28113 15.001 7.4685 14.9999C7.65587 15.001 7.84161 14.9651 8.01507 14.8943C8.18854 14.8234 8.34631 14.719 8.47934 14.5871C8.7445 14.3203 8.89334 13.9595 8.89334 13.5833C8.89334 13.2072 8.7445 12.8464 8.47934 12.5796L3.4394 7.4685Z" fill="black"/>
</svg>
