<svg width="15" height="15" viewBox="0 0 15 15" fill="none" xmlns="http://www.w3.org/2000/svg">
<path d="M5 3.75C4.65482 3.75 4.375 4.02982 4.375 4.375C4.375 4.72018 4.65482 5 5 5H10C10.3452 5 10.625 4.72018 10.625 4.375C10.625 4.02982 10.3452 3.75 10 3.75H5Z" fill="#ACACAC"/>
<path d="M4.375 6.875C4.375 6.52982 4.65482 6.25 5 6.25H10C10.3452 6.25 10.625 6.52982 10.625 6.875C10.625 7.22018 10.3452 7.5 10 7.5H5C4.65482 7.5 4.375 7.22018 4.375 6.875Z" fill="#ACACAC"/>
<path d="M5 8.75C4.65482 8.75 4.375 9.02982 4.375 9.375C4.375 9.72018 4.65482 10 5 10H7.5C7.84518 10 8.125 9.72018 8.125 9.375C8.125 9.02982 7.84518 8.75 7.5 8.75H5Z" fill="#ACACAC"/>
<path fill-rule="evenodd" clip-rule="evenodd" d="M3.125 1.25C2.43464 1.25 1.875 1.80964 1.875 2.5V12.5C1.875 13.1904 2.43464 13.75 3.125 13.75H11.875C12.5654 13.75 13.125 13.1904 13.125 12.5V2.5C13.125 1.80964 12.5654 1.25 11.875 1.25H3.125ZM11.875 2.5H3.125L3.125 12.5H8.47635L11.875 8.81813V2.5ZM11.875 12.5H10.1775L11.875 10.661V12.5Z" fill="#ACACAC"/>
</svg>
