<svg width="38" height="38" viewBox="0 0 38 38" fill="none" xmlns="http://www.w3.org/2000/svg">
<path d="M10.8933 29.925C10.2442 29.925 9.70583 29.3866 9.70583 28.7375V25.46C9.70583 24.8108 10.2442 24.2725 10.8933 24.2725C11.5425 24.2725 12.0808 24.8108 12.0808 25.46V28.7375C12.0808 29.4025 11.5425 29.925 10.8933 29.925Z" fill="#292D32"/>
<path d="M19 29.9248C18.3508 29.9248 17.8125 29.3865 17.8125 28.7373V22.1665C17.8125 21.5173 18.3508 20.979 19 20.979C19.6492 20.979 20.1875 21.5173 20.1875 22.1665V28.7373C20.1875 29.4023 19.6492 29.9248 19 29.9248Z" fill="#292D32"/>
<path d="M27.1067 29.925C26.4575 29.925 25.9192 29.3867 25.9192 28.7375V18.8892C25.9192 18.24 26.4575 17.7017 27.1067 17.7017C27.7558 17.7017 28.2942 18.24 28.2942 18.8892V28.7375C28.2942 29.4025 27.7717 29.925 27.1067 29.925Z" fill="#292D32"/>
<path d="M10.8933 20.8682C10.355 20.8682 9.88 20.5041 9.7375 19.9657C9.57917 19.3324 9.95917 18.6832 10.6083 18.5249C16.435 17.0682 21.565 13.8857 25.4758 9.34158L26.2042 8.48658C26.6317 7.99575 27.3758 7.93241 27.8825 8.35991C28.3733 8.78741 28.4367 9.53158 28.0092 10.0382L27.2808 10.8932C23.0533 15.8332 17.48 19.2691 11.1783 20.8366C11.0833 20.8682 10.9883 20.8682 10.8933 20.8682Z" fill="#292D32"/>
<path d="M27.1067 15.0735C26.4575 15.0735 25.9192 14.5352 25.9192 13.886V10.4502H22.4675C21.8183 10.4502 21.28 9.91186 21.28 9.2627C21.28 8.61353 21.8183 8.0752 22.4675 8.0752H27.1067C27.7558 8.0752 28.2942 8.61353 28.2942 9.2627V13.9019C28.2942 14.551 27.7717 15.0735 27.1067 15.0735Z" fill="#292D32"/>
<path d="M23.75 36.0207H14.25C5.65251 36.0207 1.97917 32.3473 1.97917 23.7498V14.2498C1.97917 5.65234 5.65251 1.979 14.25 1.979H23.75C32.3475 1.979 36.0208 5.65234 36.0208 14.2498V23.7498C36.0208 32.3473 32.3475 36.0207 23.75 36.0207ZM14.25 4.354C6.95084 4.354 4.35417 6.95067 4.35417 14.2498V23.7498C4.35417 31.049 6.95084 33.6457 14.25 33.6457H23.75C31.0492 33.6457 33.6458 31.049 33.6458 23.7498V14.2498C33.6458 6.95067 31.0492 4.354 23.75 4.354H14.25Z" fill="#292D32"/>
</svg>
